<?xml version="1.0" encoding="UTF-8"?>
<svg enable-background="new 0 0 501.1 125.4" version="1.1" viewBox="0 0 501.1 125.4" xml:space="preserve" xmlns="http://www.w3.org/2000/svg">
<style type="text/css">
	.st0{fill:#FEC72E;}
	.st1{fill:#FFFFFF;}
	.st2{fill:#FFFFFF;stroke:#FEC72E;stroke-width:0;stroke-linecap:round;stroke-linejoin:round;}
</style>
<path class="st0" d="m6.9 0c-0.6 0.5-1.3 1-2.1 1.8-0.9 0.7-1.6 1.5-2.3 2.4-0.7 1-1.3 2-1.8 3.1-0.5 1.3-0.7 2.6-0.7 3.8 0 0.6 0.1 1.1 0.2 1.7 0.1 0.7 0.4 1.4 0.8 2 0.4 0.7 0.9 1.2 1.6 1.7 0.8 0.5 1.7 0.7 2.6 0.7 1 0 2-0.4 2.6-1.1 0.6-0.6 1-1.5 1-2.3 0-0.9-0.3-1.8-0.9-2.4s-1.5-0.9-2.3-0.9c-0.6 0-1.2 0.2-1.7 0.6-0.4 0.3-0.7 0.6-1 1-0.1-0.2-0.3-0.6-0.6-1.1-0.3-0.6-0.4-1.3-0.4-2 0-0.9 0.2-1.7 0.5-2.5 0.4-0.8 0.8-1.6 1.4-2.2 0.6-0.7 1.2-1.4 1.8-2 0.7-0.6 1.3-1.1 1.9-1.6l-0.6-0.7zm11.7 0c-0.6 0.5-1.3 1-2.1 1.8s-1.6 1.6-2.3 2.5c-0.7 1-1.3 2-1.8 3.1-0.5 1.2-0.7 2.5-0.7 3.7 0 0.6 0.1 1.1 0.2 1.7 0.1 0.7 0.4 1.4 0.8 2 0.4 0.7 0.9 1.2 1.6 1.7 0.8 0.5 1.7 0.7 2.6 0.7 1.9 0 3.6-1.5 3.7-3.4 0-0.9-0.3-1.8-0.9-2.4s-1.5-0.9-2.3-0.9c-0.6 0-1.2 0.2-1.7 0.6-0.4 0.3-0.7 0.6-1 1-0.1-0.2-0.3-0.6-0.6-1.1-0.3-0.6-0.4-1.3-0.4-2 0-0.9 0.2-1.7 0.5-2.5 0.4-0.8 0.8-1.6 1.4-2.2 0.6-0.7 1.2-1.4 1.8-2s1.3-1.1 1.9-1.6l-0.7-0.7zm-19.3-0.2"/>
<polygon class="st0" points="39.6 15 32.2 15 32.2 8.3 40.6 8.3 40.7 11 42 11 42 7 28.8 7 28.8 8.1 30.8 8.3 30.8 23.7 28.8 23.8 28.8 24.9 42.1 24.9 42.1 21 40.8 21 40.7 23.7 32.2 23.7 32.2 16.3 39.6 16.3"/>
<path class="st0" d="m54.8 24.9h3.1v-1.1l-1.8-0.2v-12h-3.4v1.1l1.9 0.2v8.2c-0.2 0.8-0.7 1.5-1.4 2-0.8 0.5-1.7 0.8-2.7 0.7-0.9 0-1.8-0.3-2.3-1.1-0.6-1-0.9-2.3-0.8-3.5v-7.7h-3.1v1.1l1.6 0.2v6.4c-0.1 1.6 0.3 3.1 1.2 4.4 0.8 1 2 1.5 3.3 1.4 0.9 0 1.8-0.2 2.6-0.6 0.7-0.4 1.3-1.1 1.7-1.8l0.1 2.3z"/>
	<path class="st0" d="m76.2 11.6l-0.2 2.1c-0.4-0.7-1-1.3-1.7-1.7s-1.6-0.6-2.4-0.6c-1.5-0.1-2.9 0.7-3.8 1.9-1 1.5-1.4 3.3-1.4 5.1v0.3c-0.1 1.7 0.4 3.4 1.3 4.7 0.9 1.2 2.3 1.8 3.7 1.8 0.8 0 1.7-0.2 2.4-0.5 0.7-0.4 1.3-0.9 1.7-1.6v1.7c0.1 1.1-0.3 2.2-1 3.1-0.7 0.8-1.8 1.2-2.8 1.1-0.6 0-1.2-0.1-1.8-0.2s-1.1-0.3-1.7-0.6l-0.4 1.2c0.6 0.3 1.2 0.5 1.9 0.6s1.4 0.2 2 0.2c1.4 0.1 2.8-0.5 3.9-1.5 1-1.1 1.5-2.6 1.4-4v-13.1h-1.1zm-0.3 9.8c-0.3 0.7-0.8 1.3-1.5 1.8s-1.5 0.7-2.4 0.7c-1.2 0.1-2.3-0.5-2.9-1.4-0.7-1.1-1-2.5-1-3.8v-0.3c-0.1-1.4 0.3-2.9 1-4.1 0.6-1 1.7-1.6 2.9-1.6 0.9 0 1.7 0.2 2.4 0.7 0.6 0.5 1.1 1.2 1.4 1.9v6.1z"/>
	<path class="st0" d="m91.4 23.7c0-0.2-0.1-0.5-0.1-0.7v-0.8-6.5c0.1-1.2-0.4-2.4-1.3-3.2-1-0.8-2.3-1.2-3.5-1.1-0.9 0-1.9 0.1-2.7 0.4s-1.5 0.7-2.2 1.2v2.6h1.2l0.1-1.8c0.5-0.4 1-0.6 1.5-0.8 0.7-0.2 1.3-0.3 2-0.3 0.9-0.1 1.8 0.2 2.6 0.8 0.6 0.6 1 1.4 0.9 2.2v1.8h-2.9c-1.5-0.1-3 0.3-4.3 1.1-1 0.6-1.6 1.7-1.6 2.9-0.1 1 0.3 2 1.1 2.7s1.9 1.1 3 1c1 0 1.9-0.2 2.8-0.7 0.8-0.4 1.4-1 2-1.7 0 0.3 0 0.7 0.1 1 0 0.3 0.1 0.7 0.2 1.2h2.6v-1.1l-1.5-0.2zm-1.5-2.5c-0.4 0.8-1 1.5-1.8 1.9-0.8 0.5-1.8 0.8-2.8 0.7-0.7 0-1.5-0.2-2.1-0.7-0.5-0.4-0.8-1.1-0.7-1.7 0-0.9 0.5-1.7 1.2-2.1 1-0.6 2.1-0.9 3.2-0.8h3v2.7z"/>
<path class="st0" d="m97 11.6h-2v1.1l2 0.2v10.8l-2 0.2v1.1h5.5v-1.1l-2-0.2v-7.9c0.2-0.8 0.6-1.6 1.3-2.1 0.6-0.5 1.4-0.8 2.3-0.8l1.1 0.1 0.2-1.4c-0.1 0-0.3-0.1-0.4-0.1h-0.5c-0.8 0-1.6 0.2-2.3 0.7s-1.2 1.2-1.5 1.9v-0.2l-0.2-2.2-1.5-0.1z"/>
	<path class="st0" d="m115.9 23.7c0-0.2-0.1-0.5-0.1-0.7v-0.8-6.5c0.1-1.2-0.4-2.4-1.3-3.2-1-0.8-2.3-1.2-3.5-1.1-0.9 0-1.9 0.1-2.7 0.4s-1.5 0.7-2.2 1.2v2.6h1.2l0.1-1.8c0.5-0.4 1-0.6 1.5-0.8 0.7-0.2 1.3-0.3 2-0.3 0.9-0.1 1.8 0.2 2.6 0.8 0.6 0.6 1 1.4 0.9 2.2v1.8h-2.9c-1.5-0.1-3 0.3-4.3 1.1-1 0.6-1.6 1.7-1.6 2.9-0.1 1 0.3 2 1.1 2.7s1.9 1.1 3 1c1 0 1.9-0.2 2.8-0.7 0.8-0.4 1.4-1 2-1.7 0 0.3 0 0.7 0.1 1 0 0.3 0.1 0.7 0.2 1.2h2.6v-1.1l-1.5-0.2zm-1.6-2.5c-0.4 0.8-1 1.5-1.8 1.9-0.8 0.5-1.8 0.8-2.8 0.7-0.7 0-1.5-0.2-2-0.7-0.5-0.4-0.8-1.1-0.7-1.7 0-0.9 0.5-1.7 1.2-2.1 1-0.6 2.1-0.9 3.2-0.8h3v2.7z"/>
<path class="st0" d="m119.3 24.9h5.5v-1.1l-2-0.2v-8c0.2-0.8 0.7-1.6 1.4-2.2s1.6-0.9 2.5-0.8c0.9-0.1 1.8 0.3 2.4 0.9 0.7 0.9 1 2.1 0.9 3.2v6.8l-2 0.2v1.1h5.5v-1.1l-2-0.2v-6.8c0.1-1.5-0.3-2.9-1.1-4.1-0.8-0.9-2-1.4-3.3-1.3-0.9 0-1.8 0.2-2.6 0.7-0.7 0.5-1.3 1.1-1.7 1.9l-0.1-2.3h-3.3v1.1l2 0.2v10.8l-2 0.2-0.1 1z"/>
<path class="st0" d="m137.9 8.2v3.4h-2.3v1.2h2.3v8.6c-0.1 1 0.2 2 0.8 2.8 0.6 0.6 1.4 0.9 2.2 0.9 0.4 0 0.7 0 1.1-0.1 0.3 0 0.6-0.1 0.9-0.2l-0.2-1.1c-0.3 0-0.6 0.1-0.8 0.1s-0.5 0-0.7 0c-0.5 0-0.9-0.2-1.3-0.5-0.4-0.5-0.5-1.2-0.5-1.8v-8.6h2.9v-1.2h-2.9v-3.5h-1.5z"/>
	<path class="st0" d="m155.1 13.3c-2.2-2.4-5.8-2.5-8.2-0.4l-0.4 0.4c-1.1 1.4-1.7 3.1-1.6 4.8v0.4c-0.1 1.7 0.5 3.5 1.6 4.8 2.2 2.4 5.8 2.5 8.2 0.3l0.3-0.3c1.1-1.4 1.7-3.1 1.6-4.8v-0.4c0.2-1.8-0.4-3.5-1.5-4.8zm0.1 5.2c0 1.4-0.4 2.7-1.2 3.9-1.4 1.8-4 2.1-5.8 0.7-0.3-0.2-0.5-0.4-0.7-0.7-0.8-1.1-1.2-2.5-1.2-3.9v-0.4c0-1.4 0.4-2.7 1.2-3.9 1.4-1.8 3.9-2.1 5.7-0.7 0.3 0.2 0.5 0.5 0.7 0.7 0.8 1.1 1.2 2.5 1.2 3.9v0.4z"/>
	<path class="st1" d="m176.3 28.7v-17.1h-1.3l-0.1 2c-0.9-1.4-2.4-2.3-4.1-2.2-1.5-0.1-2.9 0.7-3.7 1.9-1 1.5-1.4 3.3-1.3 5.1v0.3c-0.1 1.7 0.4 3.4 1.3 4.7 0.9 1.2 2.3 1.8 3.7 1.8 0.8 0 1.6-0.2 2.4-0.5 0.7-0.3 1.3-0.9 1.7-1.5v5.6l-2 0.2v1h5.5v-1.1l-2.1-0.2zm-1.5-7.1c-0.3 0.7-0.8 1.3-1.5 1.7s-1.5 0.6-2.3 0.6c-1.2 0.1-2.3-0.5-2.9-1.4-0.7-1.2-1-2.5-1-3.8v-0.3c-0.1-1.4 0.3-2.9 1-4.1 0.6-1 1.7-1.7 2.9-1.6 0.8 0 1.6 0.2 2.3 0.7 0.6 0.5 1.1 1.1 1.4 1.8v6.4z"/>
<path class="st1" d="m189.9 24.9h3.1v-1.1l-1.8-0.2v-12h-3.4v1.1l1.9 0.2v8.2c-0.2 0.8-0.7 1.5-1.4 2-0.8 0.5-1.7 0.8-2.7 0.7-0.9 0-1.8-0.3-2.3-1.1-0.6-1-0.9-2.3-0.8-3.5v-7.7h-3.1v1.1l1.6 0.2v6.4c-0.1 1.6 0.3 3.1 1.2 4.4 0.8 1 2 1.5 3.3 1.4 0.9 0 1.8-0.2 2.6-0.6 0.7-0.4 1.3-1.1 1.7-1.8l0.1 2.3z"/>
	<path class="st1" d="m206.2 18.3v-1.3c0.1-1.5-0.4-3-1.4-4.1s-2.4-1.6-3.8-1.5c-1.5 0-3 0.7-4 1.9-1.1 1.3-1.7 3-1.6 4.7v0.7c-0.1 1.7 0.5 3.4 1.6 4.7 1 1.2 2.6 1.9 4.1 1.8 0.9 0 1.9-0.1 2.7-0.5 0.7-0.3 1.4-0.7 1.9-1.2l-0.6-1c-0.5 0.5-1 0.9-1.7 1.1-0.7 0.3-1.5 0.4-2.3 0.4-1.2 0-2.4-0.5-3.1-1.5-0.8-1.1-1.2-2.4-1.2-3.7v-0.4h9.4zm-7.9-4.4c0.7-0.8 1.7-1.3 2.7-1.2 1 0 2.1 0.4 2.8 1.2s1.1 1.8 1 2.9v0.4h-7.8v-0.1c0.1-1.3 0.5-2.3 1.3-3.2z"/>
	<path class="st1" d="m227.3 24.9v-1.1l-1.3-0.1c0-0.2-0.1-0.5-0.1-0.7v-0.8-6.5c0.1-1.2-0.4-2.4-1.3-3.2-1-0.8-2.3-1.2-3.5-1.1-0.9 0-1.9 0.1-2.7 0.4s-1.5 0.7-2.2 1.2v2.6h1.2l0.1-1.8c0.5-0.4 1-0.6 1.5-0.8 0.7-0.2 1.3-0.3 2-0.3 0.9-0.1 1.8 0.2 2.6 0.8 0.6 0.6 1 1.4 0.9 2.2v1.8h-2.9c-1.5-0.1-3 0.3-4.3 1.1-1 0.6-1.6 1.7-1.6 2.9-0.1 1 0.3 2 1.1 2.7s1.9 1.1 3 1c1 0 1.9-0.2 2.8-0.7 0.8-0.4 1.4-1 2-1.7 0 0.3 0 0.7 0.1 1 0 0.3 0.1 0.7 0.2 1.2l2.4-0.1zm-2.9-3.7c-0.4 0.8-1 1.5-1.8 1.9-0.8 0.5-1.8 0.8-2.8 0.7-0.7 0-1.5-0.2-2-0.7-0.5-0.4-0.8-1.1-0.7-1.7 0-0.9 0.5-1.7 1.2-2.1 1-0.6 2.1-0.9 3.2-0.8h3v2.7z"/>
<polygon class="st1" points="235.4 24.9 240.3 24.9 240.3 23.8 238.6 23.7 243.4 17 248.1 23.7 246.4 23.8 246.4 24.9 251.3 24.9 251.3 23.8 249.8 23.7 244.2 15.8 249.6 8.3 251.1 8.1 251.1 7 246.2 7 246.2 8.1 247.9 8.2 243.3 14.7 238.8 8.2 240.5 8.1 240.5 7 235.6 7 235.6 8.1 237.1 8.3 242.5 15.8 236.9 23.7 235.4 23.8"/>
	<path class="st1" d="m264.9 8.5c-1.2-1-2.8-1.5-4.3-1.4h-7.6v1.1l2 0.2v15.4l-2 0.2v1.1h5.5v-1.1l-2-0.2v-6.2h4.1c1.6 0.1 3.1-0.4 4.3-1.4 1-1 1.6-2.4 1.5-3.8 0.1-1.6-0.5-2.9-1.5-3.9zm-1 6.6c-0.9 0.8-2.1 1.2-3.3 1.1h-4.1v-7.9h4.1c1.2-0.1 2.4 0.3 3.3 1.1 0.7 0.8 1.1 1.8 1.1 2.9 0 1-0.4 2.1-1.1 2.8z"/>
	<line class="st2" x1="256.5" x2="256.5" y1="8.3" y2="8.3"/>
	<path class="st1" d="m286.5 18.3v-1.3c0.1-1.5-0.4-3-1.4-4.1s-2.4-1.6-3.8-1.5c-1.5 0-3 0.7-4 1.9-1.1 1.3-1.7 3-1.6 4.7v0.7c-0.1 1.7 0.5 3.4 1.6 4.7 1 1.2 2.6 1.9 4.1 1.8 0.9 0 1.9-0.1 2.7-0.5 0.7-0.3 1.4-0.7 1.9-1.2l-0.6-1c-0.5 0.5-1 0.9-1.7 1.1-0.7 0.3-1.5 0.4-2.3 0.4-1.2 0-2.4-0.5-3.1-1.5-0.8-1.1-1.2-2.4-1.2-3.7v-0.4h9.4zm-8-4.4c0.7-0.8 1.7-1.3 2.7-1.2 1 0 2.1 0.4 2.8 1.2s1.1 1.8 1 2.9v0.4h-7.8v-0.1c0.1-1.3 0.6-2.4 1.3-3.2z"/>
	<polygon class="st1" points="284.5 6.6 284.4 6.6 282.6 6.6 280.1 9.8 281.4 9.8"/>
<path class="st1" d="m305.6 24.9h3.1v-1.1l-1.8-0.2v-12h-3.4v1.1l1.9 0.2v8.2c-0.2 0.8-0.7 1.5-1.4 2-0.8 0.5-1.7 0.8-2.7 0.7-0.9 0-1.8-0.3-2.3-1.1-0.6-1-0.9-2.3-0.8-3.5v-7.7h-3.1v1.1l1.6 0.2v6.4c-0.1 1.6 0.3 3.1 1.2 4.4 0.8 1 2 1.5 3.3 1.4 0.9 0 1.8-0.2 2.6-0.6 0.7-0.4 1.3-1.1 1.7-1.8l0.1 2.3z"/>
<path class="st1" d="m312.8 12.9v10.8l-2 0.2v1.1h5.5v-1.1l-2-0.2v-8.1c0.2-0.8 0.7-1.6 1.3-2.1 0.7-0.6 1.6-0.8 2.5-0.8s1.8 0.3 2.4 1c0.7 1 1 2.2 0.9 3.4v6.5l-2 0.2v1.1h5.5v-1.1l-2-0.2v-6.7-0.2-0.2c0.1-1 0.5-2 1.1-2.8 0.7-0.7 1.6-1.2 2.6-1.1 0.9 0 1.8 0.3 2.4 1 0.7 1 1 2.2 0.9 3.5v6.5l-2 0.2v1.1h5.5v-1.1l-2-0.2v-6.5c0.1-1.5-0.3-3.1-1.2-4.4-0.8-1-2-1.5-3.3-1.4-1 0-1.9 0.3-2.7 0.8-0.8 0.6-1.4 1.3-1.7 2.2-0.2-0.9-0.7-1.7-1.5-2.3-0.7-0.5-1.6-0.8-2.5-0.7-0.9 0-1.8 0.2-2.5 0.6s-1.3 1.1-1.7 1.8l-0.1-2.2h-3.3v1.1l1.9 0.3z"/>
	<path class="st1" d="m345.8 23.7c0-0.2-0.1-0.5-0.1-0.7v-0.8-6.5c0.1-1.2-0.4-2.4-1.3-3.2-1-0.8-2.3-1.2-3.5-1.1-0.9 0-1.9 0.1-2.7 0.4s-1.5 0.7-2.2 1.2v2.6h1.2l0.1-1.8c0.5-0.4 1-0.6 1.5-0.8 0.7-0.2 1.3-0.3 2-0.3 0.9-0.1 1.8 0.2 2.6 0.8 0.6 0.6 1 1.4 0.9 2.2v1.8h-2.9c-1.5-0.1-3 0.3-4.3 1.1-1 0.6-1.6 1.7-1.6 2.9-0.1 1 0.3 2 1.1 2.7s1.9 1.1 3 1c1 0 1.9-0.2 2.8-0.7 0.8-0.4 1.4-1 2-1.7 0 0.3 0 0.7 0.1 1 0 0.3 0.1 0.7 0.2 1.2h2.6v-1.1l-1.5-0.2zm-1.5-2.5c-0.4 0.8-1 1.5-1.8 1.9-0.8 0.5-1.8 0.8-2.8 0.7-0.7 0-1.5-0.2-2-0.7-0.5-0.4-0.8-1.1-0.7-1.7 0-0.9 0.5-1.7 1.2-2.1 1-0.6 2.1-0.9 3.2-0.8h3v2.7z"/>
	<polygon class="st1" points="347.1 24.9 347.1 24.9"/>
	<path class="st1" d="m366 13.3c-2.2-2.4-5.8-2.5-8.2-0.4l-0.4 0.4c-1.1 1.4-1.7 3.1-1.6 4.8v0.4c-0.1 1.7 0.5 3.5 1.6 4.8 2.2 2.4 5.8 2.5 8.2 0.3l0.3-0.3c1.1-1.4 1.7-3.1 1.6-4.8v-0.4c0.2-1.8-0.4-3.5-1.5-4.8zm0.1 5.2c0 1.4-0.4 2.7-1.2 3.9-1.4 1.8-4 2.1-5.8 0.7-0.3-0.2-0.5-0.4-0.7-0.7-0.8-1.1-1.2-2.5-1.2-3.9v-0.4c0-1.4 0.4-2.7 1.2-3.9 1.4-1.8 3.9-2.1 5.7-0.7 0.3 0.2 0.5 0.5 0.7 0.7 0.8 1.1 1.2 2.5 1.2 3.9v0.4z"/>
	<polygon class="st1" points="364.9 6.7 364.9 6.6 363.1 6.6 360.6 9.8 361.9 9.8"/>
<path class="st1" d="m372.1 8.2v3.4h-2.3v1.2h2.3v8.6c-0.1 1 0.2 2 0.8 2.8 0.6 0.6 1.4 0.9 2.2 0.9 0.4 0 0.7 0 1.1-0.1 0.3 0 0.6-0.1 0.9-0.2l-0.2-1.1c-0.3 0-0.6 0.1-0.8 0.1s-0.5 0-0.7 0c-0.5 0-0.9-0.2-1.3-0.5-0.4-0.5-0.5-1.2-0.5-1.8v-8.7h2.9v-1.2h-2.9v-3.4h-1.5z"/>
<polygon class="st1" points="379.4 24.9 384.8 24.9 384.8 23.8 382.8 23.7 382.8 11.6 379.4 11.6 379.4 12.7 381.4 12.9 381.4 23.7 379.4 23.8"/>
<polygon class="st1" points="382.8 5.8 381.4 5.8 381.4 7.8 382.8 7.8"/>
<path class="st1" d="m389.2 12.9v10.8l-2 0.2v1.1h5.5v-1.1l-2-0.2v-8.1c0.2-0.8 0.6-1.6 1.3-2.1 0.7-0.6 1.6-0.8 2.5-0.8s1.8 0.3 2.4 1c0.7 1 1 2.2 0.9 3.4v6.5l-2 0.2v1.1h5.5v-1.1l-2-0.2v-6.7-0.2s0-0.1 0-0.2c0.1-1 0.5-2 1.1-2.8 0.7-0.7 1.6-1.2 2.6-1.1 0.9 0 1.8 0.3 2.4 1 0.7 1 1 2.2 0.9 3.5v6.5l-2 0.2v1.1h5.5v-1.1l-2-0.2v-6.5c0.1-1.5-0.3-3.1-1.2-4.4-0.8-1-2-1.5-3.3-1.4-1 0-1.9 0.3-2.7 0.8-0.8 0.6-1.4 1.3-1.7 2.2-0.2-0.9-0.7-1.7-1.5-2.3-0.7-0.5-1.6-0.8-2.5-0.7-0.9 0-1.8 0.2-2.5 0.6s-1.3 1.1-1.7 1.8l-0.1-2.2h-3.3v1.1l1.9 0.3z"/>
	<path class="st1" d="m422.3 23.7c0-0.2-0.1-0.5-0.1-0.7v-0.8-6.5c0.1-1.2-0.4-2.4-1.3-3.2-1-0.8-2.3-1.2-3.5-1.1-0.9 0-1.9 0.1-2.7 0.4s-1.5 0.7-2.2 1.2v2.6h1.2l0.1-1.8c0.5-0.4 1-0.6 1.5-0.8 0.7-0.2 1.3-0.3 2-0.3 0.9-0.1 1.8 0.2 2.6 0.8 0.6 0.6 1 1.4 0.9 2.2v1.8h-2.9c-1.5-0.1-3 0.3-4.3 1.1-1 0.6-1.6 1.7-1.6 2.9-0.1 1 0.3 2 1.1 2.7s1.9 1.1 3 1c1 0 1.9-0.2 2.8-0.7 0.8-0.4 1.4-1 2-1.7 0 0.3 0 0.7 0.1 1 0 0.3 0.1 0.7 0.2 1.2h2.6v-1.1l-1.5-0.2zm-1.6-2.5c-0.4 0.8-1 1.5-1.8 1.9-0.8 0.5-1.8 0.8-2.8 0.7-0.7 0-1.5-0.2-2-0.6s-0.8-1.1-0.7-1.7c0-0.9 0.5-1.7 1.2-2.1 1-0.6 2.1-0.9 3.2-0.8h3v2.6z"/>
	<polygon class="st1" points="414.1 23.2 414.1 23.2"/>
	<path class="st1" d="m442.4 13.3c-2.2-2.4-5.8-2.5-8.2-0.4l-0.4 0.4c-1.1 1.4-1.7 3.1-1.6 4.8v0.4c-0.1 1.7 0.5 3.5 1.6 4.8 2.2 2.4 5.8 2.5 8.2 0.3l0.3-0.3c1.1-1.4 1.7-3.1 1.6-4.8v-0.4c0.2-1.8-0.4-3.5-1.5-4.8zm0.2 5.2c0 1.4-0.4 2.7-1.2 3.9-1.4 1.8-4 2.1-5.8 0.7-0.3-0.2-0.5-0.4-0.7-0.7-0.8-1.1-1.2-2.5-1.2-3.9v-0.4c0-1.4 0.4-2.7 1.2-3.9 1.4-1.8 3.9-2.1 5.7-0.7 0.3 0.2 0.5 0.5 0.7 0.7 0.8 1.1 1.2 2.5 1.2 3.9v0.4z"/>
	<path class="st1" d="m457.6 13.3c-0.8-1.2-2.2-2-3.7-1.9-0.9 0-1.7 0.2-2.5 0.6-0.7 0.4-1.3 1-1.7 1.7l-0.2-2.1h-3.2v1.1l2 0.2v15.9l-2 0.2v1h5.5v-1.1l-2-0.2v-5.6c0.4 0.6 1 1.2 1.7 1.5 0.8 0.4 1.6 0.6 2.4 0.5 1.5 0.1 2.8-0.6 3.7-1.8 1-1.4 1.4-3.1 1.3-4.8v-0.3c0.2-1.6-0.3-3.4-1.3-4.9zm-0.1 5.3c0.1 1.4-0.3 2.7-1 3.8-0.7 1-1.8 1.5-2.9 1.4-0.8 0-1.7-0.2-2.4-0.6-0.6-0.4-1.1-1-1.5-1.7v-6.4c0.3-0.7 0.8-1.4 1.4-1.8 0.7-0.5 1.6-0.7 2.4-0.7 1.2 0 2.3 0.6 2.9 1.6 0.7 1.3 1.1 2.7 1 4.1v0.3z"/>
<path class="st1" d="m464.1 22.4c-0.7-1.2-1.1-2.5-1-3.9v-0.5c-0.1-1.4 0.3-2.7 1-3.8 0.7-1 1.9-1.6 3.2-1.5 0.7 0 1.4 0.1 2 0.4 0.6 0.2 1.1 0.6 1.5 1l0.2 2.4h1.3l-0.1-2.9c-0.6-0.7-1.3-1.2-2.1-1.6-0.9-0.4-1.8-0.6-2.8-0.6-1.6-0.1-3.2 0.6-4.2 1.9-1 1.4-1.6 3-1.5 4.8v0.5c-0.1 1.7 0.5 3.4 1.5 4.8 1 1.3 2.6 1.9 4.2 1.9 1.3 0 2.6-0.4 3.5-1.2 1-0.7 1.5-1.9 1.5-3.1v-0.1h-1.3c0 0.9-0.4 1.8-1.1 2.3-0.7 0.6-1.6 0.8-2.6 0.8-1.3 0-2.5-0.6-3.2-1.6z"/>
<path class="st1" d="m466.5 25l-0.3 1.6c0.6 0 1.2 0.1 1.8 0.4 0.3 0.2 0.5 0.6 0.5 1 0 0.5-0.3 0.9-0.8 1.1-0.6 0.3-1.2 0.4-1.8 0.4l0.1 1c1 0.1 1.9-0.2 2.8-0.7 0.6-0.4 1-1.1 1-1.8 0-0.6-0.2-1.1-0.6-1.5-0.5-0.3-1-0.6-1.6-0.6l0.1-0.8-1.2-0.1z"/>
	<path class="st1" d="m485.7 23.7c0-0.2-0.1-0.5-0.1-0.7v-0.8-6.5c0.1-1.2-0.4-2.4-1.3-3.2-1-0.8-2.3-1.2-3.5-1.1-0.9 0-1.9 0.1-2.7 0.4s-1.5 0.7-2.2 1.2v2.6h1.2l0.1-1.8c0.5-0.4 1-0.6 1.5-0.8 0.7-0.2 1.3-0.3 2-0.3 0.9-0.1 1.8 0.2 2.6 0.8 0.6 0.6 1 1.4 0.9 2.2v1.8h-2.9c-1.5-0.1-3 0.3-4.3 1.1-1 0.6-1.6 1.7-1.6 2.9-0.1 1 0.3 2 1.1 2.7s1.9 1.1 3 1c1 0 1.9-0.2 2.8-0.7 0.8-0.4 1.4-1 2-1.7 0 0.3 0 0.7 0.1 1 0 0.3 0.1 0.7 0.2 1.2h2.6v-1.1l-1.5-0.2zm-1.5-2.5c-0.4 0.8-1 1.5-1.8 1.9-0.8 0.5-1.8 0.8-2.8 0.7-0.7 0-1.5-0.2-2-0.7-0.5-0.4-0.8-1.1-0.7-1.7 0-0.9 0.5-1.7 1.2-2.1 1-0.6 2.1-0.9 3.2-0.8h3v2.7z"/>
	<polygon class="st1" points="487.1 24.9 487.1 24.9"/>
	<polygon class="st1" points="477.6 23.2 477.6 23.2"/>
<path class="st1" d="m484 6.3c0 0.4-0.1 0.8-0.4 1.1-0.2 0.3-0.6 0.4-1 0.4-0.6-0.1-1.2-0.3-1.6-0.7-0.5-0.4-1.2-0.6-1.8-0.7-0.6 0-1.2 0.2-1.7 0.7-0.4 0.5-0.7 1.1-0.7 1.8l1 0.2c0-0.4 0.1-0.8 0.4-1.1 0.2-0.3 0.6-0.4 1-0.4 0.6 0.1 1.2 0.3 1.6 0.7 0.5 0.4 1.2 0.7 1.9 0.7 0.6 0 1.2-0.2 1.7-0.7s0.7-1.1 0.7-1.8l-1.1-0.2z"/>
	<path class="st1" d="m499.5 13.3c-2.2-2.4-5.8-2.5-8.2-0.4l-0.4 0.4c-1.1 1.4-1.7 3.1-1.6 4.8v0.4c-0.1 1.7 0.5 3.5 1.6 4.8 2.2 2.4 5.8 2.5 8.2 0.3l0.3-0.3c1.1-1.4 1.7-3.1 1.6-4.8v-0.4c0.2-1.8-0.4-3.5-1.5-4.8zm0.1 5.2c0 1.4-0.4 2.7-1.2 3.9-1.4 1.8-4 2.1-5.8 0.7-0.3-0.2-0.5-0.4-0.7-0.7-0.8-1.1-1.2-2.5-1.2-3.9v-0.4c0-1.4 0.4-2.7 1.2-3.9 1.4-1.8 3.9-2.1 5.7-0.7 0.3 0.2 0.5 0.5 0.7 0.7 0.8 1.1 1.2 2.5 1.2 3.9v0.4z"/>
<path class="st1" d="m29.2 72.1h7.4v-1.1h-3.2v-10.3c0.7 1.1 1.7 2.1 2.9 2.7 1.3 0.7 2.8 1 4.3 1 2.3 0.1 4.5-1 5.8-2.9 1.5-2.3 2.3-5 2.1-7.8v-0.4c0.1-2.8-0.6-5.6-2.1-8-1.3-1.9-3.5-3-5.9-3-1.5 0-3 0.3-4.3 1.1-1.2 0.7-2.2 1.8-2.9 3.1l-0.2-3.8h-4v1.1h3.2v27.2h-3.2v1.1zm18.3-18.3c0.1 2.4-0.5 4.9-1.8 7-1.1 1.7-3.1 2.7-5.1 2.6-1.6 0.1-3.2-0.4-4.6-1.3-1.2-0.8-2.1-2-2.6-3.4v-9.9c0.5-1.5 1.3-2.8 2.4-3.8 1.3-1.1 3-1.7 4.8-1.5 2.1-0.1 4 1 5.1 2.7 1.3 2.2 1.9 4.7 1.8 7.2v0.4zm24.4 10.2v-1.1h-2.5c-0.1-0.5-0.2-1.1-0.2-1.6s-0.1-1.1-0.1-1.6v-10.6c0.1-1.9-0.6-3.7-2.1-5-1.6-1.2-3.5-1.8-5.5-1.7-1.5 0-2.9 0.2-4.3 0.7-1.3 0.4-2.5 1-3.6 1.8v4h1.1v-3.4c0.9-0.7 1.9-1.2 3-1.6 1.2-0.4 2.5-0.6 3.8-0.6 1.7-0.1 3.4 0.4 4.8 1.5 1.2 1 1.8 2.6 1.7 4.1v3.1h-5.3c-2.5-0.1-4.9 0.5-7 1.8-2.6 1.7-3.4 5.2-1.7 7.9 0.2 0.3 0.5 0.7 0.8 1 1.3 1.1 2.9 1.7 4.6 1.6 1.8 0 3.6-0.4 5.1-1.2 1.4-0.7 2.5-1.8 3.4-3.1v0.3c0 0.5 0 1 0.1 1.5s0.2 1.2 0.3 2.1l3.6 0.1zm-16.3-2c-0.9-0.8-1.5-2.1-1.5-3.3 0-1.6 0.9-3.2 2.4-3.9 1.9-1.1 4.1-1.6 6.3-1.5h5.2v5c-0.7 1.6-1.9 2.9-3.3 3.7-1.6 0.9-3.4 1.4-5.2 1.4-1.5 0-2.8-0.5-3.9-1.4zm23-19.2h-3.2v1.1h3.2v19.1h-3.2v1h7.4v-1.1h-3.2v-12.8c0.3-1.8 1.1-3.5 2.3-4.8 1.2-1.2 2.9-1.9 4.6-1.8l1.4 0.1 0.1-0.9c-0.2-0.1-0.4-0.1-0.7-0.1s-0.6-0.1-0.8-0.1c-1.5-0.1-3 0.4-4.3 1.3-1.2 0.9-2.1 2.1-2.6 3.5v-0.7l-0.2-3.7-0.8-0.1zm32 21.2v-1.1h-2.5c-0.1-0.5-0.2-1.1-0.2-1.6s-0.1-1.1-0.1-1.6v-10.6c0.1-1.9-0.6-3.7-2.1-5-1.6-1.2-3.5-1.8-5.5-1.7-1.5 0-2.9 0.2-4.3 0.7-1.3 0.4-2.5 1-3.6 1.8v4h1.1v-3.4c0.9-0.7 1.9-1.2 3-1.6 1.2-0.4 2.5-0.6 3.8-0.6 1.7-0.1 3.4 0.4 4.8 1.5 1.2 1 1.8 2.6 1.7 4.1v3.1h-5.3c-2.5-0.1-4.9 0.5-7 1.8-2.6 1.7-3.4 5.2-1.7 7.9 0.2 0.4 0.5 0.7 0.8 1 1.3 1.1 2.9 1.7 4.6 1.6 1.8 0 3.6-0.4 5.1-1.2 1.4-0.7 2.5-1.8 3.4-3.1v0.3c0 0.5 0 1 0.1 1.5s0.2 1.2 0.3 2.1l3.6 0.1zm-16.3-2c-0.9-0.8-1.5-2.1-1.4-3.3 0-1.6 0.9-3.2 2.4-3.9 1.9-1.1 4.1-1.6 6.3-1.5h5.2v5c-0.7 1.6-1.9 2.9-3.3 3.7-1.6 0.9-3.4 1.4-5.2 1.4-1.5 0-2.9-0.5-4-1.4zm44.8-16.7c-0.9-0.9-1.9-1.6-3.1-2.1-1.3-0.5-2.8-0.8-4.2-0.8-1.9-0.1-3.7 0.4-5.2 1.5-1.2 0.9-1.9 2.3-1.9 3.8-0.1 1.5 0.6 2.8 1.7 3.7 1.7 1.1 3.5 1.8 5.5 2.1 1.8 0.3 3.6 1 5 2.2 0.9 0.8 1.4 1.9 1.4 3.1 0 1.3-0.7 2.5-1.7 3.2-1.4 1-3 1.5-4.7 1.4-1.2 0-2.4-0.2-3.6-0.5-1.1-0.3-2.1-1-2.9-1.8v-3.2h-1.1v3.8c0.9 0.9 2 1.6 3.3 2.1 1.4 0.5 2.8 0.8 4.3 0.7 1.9 0.1 3.8-0.4 5.4-1.5 1.3-0.9 2.1-2.4 2-4 0.1-1.5-0.6-3-1.8-4-1.6-1.1-3.4-1.9-5.4-2.2-2.6-0.6-4.3-1.3-5.1-2.1-0.8-0.7-1.3-1.7-1.3-2.8 0-1.2 0.6-2.3 1.5-3 1.3-0.9 2.9-1.4 4.5-1.3 1.2 0 2.5 0.2 3.7 0.6 1 0.4 1.9 1 2.6 1.7v3.4h1.1v-4zm21.6 18.7h4.1v-1.1h-3.2v-20.1h-4.3v1.1h3.2v13.6c-0.3 1.6-1 3.2-2.3 4.3-1.4 1.2-3.2 1.7-5.1 1.6-1.7 0.1-3.3-0.7-4.3-2.1-1.1-1.4-1.6-3.5-1.6-6.4v-12.1h-3.9v1.1h2.8v11c0 3.3 0.6 5.7 1.9 7.2 1.2 1.6 3.1 2.4 5.1 2.3 1.6 0 3.1-0.3 4.5-1.1 1.2-0.7 2.2-1.8 2.9-3.1l0.2 3.8zm27 0v-1.1h-2.5c-0.1-0.5-0.2-1.1-0.2-1.6s-0.1-1.1-0.1-1.6v-10.6c0.1-1.9-0.6-3.7-2.1-5-1.6-1.2-3.5-1.8-5.5-1.7-1.5 0-2.9 0.2-4.3 0.7-1.3 0.4-2.5 1-3.6 1.8v4h1.1v-3.4c0.9-0.7 1.9-1.2 3-1.6 1.2-0.4 2.5-0.6 3.8-0.6 1.7-0.1 3.4 0.4 4.8 1.5 1.2 1 1.8 2.6 1.7 4.1v3.1h-5.3c-2.5-0.1-4.9 0.5-7 1.8-2.6 1.7-3.4 5.2-1.7 7.9 0.2 0.3 0.5 0.7 0.8 1 1.3 1.1 2.9 1.7 4.6 1.6 1.8 0 3.6-0.4 5.1-1.2 1.4-0.7 2.5-1.8 3.4-3.1v0.3c0 0.5 0 1 0.1 1.5s0.2 1.2 0.3 2.1l3.6 0.1zm-16.2-2c-0.9-0.8-1.5-2.1-1.4-3.3 0-1.6 0.9-3.2 2.4-3.9 1.9-1.1 4.1-1.6 6.3-1.5h5.2v5c-0.7 1.6-1.9 2.9-3.3 3.7-1.6 0.9-3.4 1.4-5.2 1.4-1.6 0-3-0.5-4-1.4zm29.3 10.1h7.4v-1.1h-3.2v-10.3c0.7 1.1 1.7 2.1 2.9 2.7 1.3 0.7 2.8 1 4.3 1 2.3 0.1 4.5-1 5.8-2.9 1.5-2.3 2.3-5 2.1-7.8v-0.4c0.1-2.8-0.6-5.6-2.1-8-1.3-1.9-3.5-3-5.9-3-1.5 0-3 0.3-4.3 1.1-1.2 0.7-2.2 1.8-2.9 3.1l-0.2-3.8h-4v1.1h3.2v27.2h-3.2l0.1 1.1zm18.3-18.3c0.1 2.4-0.5 4.9-1.8 7-1.1 1.7-3.1 2.7-5.1 2.6-1.6 0.1-3.2-0.4-4.6-1.3-1.2-0.8-2.1-2-2.6-3.4v-9.9c0.5-1.5 1.3-2.8 2.4-3.8 1.3-1.1 3-1.7 4.8-1.5 2.1-0.1 4 1 5.1 2.8 1.3 2.2 1.9 4.7 1.8 7.2v0.3zm8.5-11h-3.2v1.1h3.2v19.1h-3.2v1h7.4v-1.1h-3.2v-12.8c0.3-1.8 1.1-3.5 2.3-4.8 1.2-1.2 2.9-1.9 4.6-1.8l1.4 0.1 0.1-0.9c-0.2-0.1-0.4-0.1-0.7-0.1s-0.6-0.1-0.8-0.1c-1.5 0-3 0.4-4.3 1.3-1.2 0.9-2.1 2.1-2.6 3.5v-0.7l-0.2-3.7-0.8-0.1zm26.1 20.9c1.2-0.5 2.2-1.2 3-2.1l-0.6-0.8c-0.7 0.9-1.7 1.5-2.7 1.9-1.3 0.5-2.6 0.7-4 0.6-2.2 0-4.2-1-5.6-2.7-1.5-1.8-2.3-4.1-2.3-6.5v-1.5h15.9v-1.6c0.1-2.3-0.7-4.6-2.3-6.3-1.5-1.6-3.7-2.4-5.9-2.4-2.4 0-4.8 1.1-6.3 3-1.7 2.1-2.7 4.8-2.5 7.6v1.3c-0.1 2.7 0.9 5.3 2.6 7.3 1.5 1.9 3.8 2.9 6.3 2.9 1.7 0 3.1-0.2 4.4-0.7zm0.9-18.1c1.3 1.5 2 3.4 2 5.4v0.6h-14.6l-0.1-0.1c0.1-2.1 0.9-4.2 2.4-5.8 1.3-1.5 3.2-2.3 5.3-2.3 1.8 0 3.7 0.7 5 2.2zm12.9-2.8h-6.2v1.1h2.3l7.8 20.1h1l7.8-20.1h2.3v-1.1h-6.2v1.1h2.8l-6.1 15.7-1 2.9h-0.1l-1-2.9-6.1-15.7h2.8l-0.1-1.1zm17.7 21.2h7.4v-1.1h-3.2v-20.1h-4.3v1.1h3.2v19.1h-3.2l0.1 1zm4.2-30.6h-1.1v2.7h1.1v-2.7zm23.6 30.6h4.2v-1.1h-3.2v-29.5h-4.3v1.1h3.2v12.2c-0.7-1.3-1.7-2.4-2.9-3.1-1.3-0.8-2.8-1.2-4.3-1.1-2.3-0.1-4.6 1-5.9 3-1.5 2.4-2.3 5.2-2.1 8v0.4c-0.1 2.7 0.6 5.5 2.1 7.8 1.3 1.9 3.5 3 5.9 2.9 1.5 0 3-0.3 4.4-1 1.2-0.7 2.2-1.6 2.9-2.8v3.2zm-14.1-10.7c-0.1-2.5 0.5-5 1.8-7.2 1.1-1.8 3-2.8 5.1-2.8 1.7-0.1 3.4 0.4 4.7 1.5 1.1 1 2 2.3 2.5 3.8v9.9c-0.5 1.4-1.4 2.5-2.7 3.4-1.4 0.9-3 1.3-4.6 1.3-2 0.1-4-0.9-5.1-2.6-1.3-2.1-1.9-4.5-1.7-7v-0.3zm36.2 10.4c1.2-0.5 2.2-1.2 3-2.1l-0.6-0.8c-0.7 0.9-1.7 1.5-2.7 1.9-1.3 0.5-2.6 0.7-4 0.6-2.2 0-4.2-1-5.6-2.7-1.5-1.8-2.3-4.1-2.3-6.5v-1.5h15.9v-1.6c0.1-2.3-0.7-4.6-2.3-6.3-1.5-1.6-3.7-2.4-5.9-2.4-2.4 0-4.8 1.1-6.3 3-1.7 2.1-2.7 4.8-2.5 7.6v1.3c-0.1 2.7 0.9 5.3 2.6 7.3 1.5 1.9 3.8 2.9 6.3 2.9 1.6 0 3.1-0.2 4.4-0.7zm0.8-18.1c1.3 1.5 2 3.4 2 5.4v0.6h-14.6l-0.1-0.1c0.1-2.1 0.9-4.2 2.4-5.8 1.3-1.5 3.2-2.3 5.3-2.3 1.9 0 3.7 0.7 5 2.2zm-4.2-11.1h-1.6l-4.1 4v0.3h1.3l3.6-3.6 3.6 3.6h1.4v-0.3l-4.2-4zm11.9 29.5h7.4v-1.1h-3.2v-12.2c0.2-1.9 1-3.7 2.2-5.2 1.3-1.4 3.2-2.2 5.2-2 1.6-0.1 3.2 0.6 4.3 1.8s1.6 3.3 1.6 6.2v11.5h-3.2v1h7.4v-1.1h-3.2v-11.4c0-3.2-0.6-5.5-1.7-6.9-1.3-1.5-3.2-2.3-5.2-2.2-1.6-0.1-3.2 0.4-4.5 1.2-1.3 0.9-2.2 2.1-2.8 3.5l-0.1-4.4h-4.1v1.1h3.2v19.1h-3.2v1.1zm29.3-3.3c-1.4-2-2-4.4-1.9-6.9v-0.8c-0.1-2.4 0.6-4.8 1.9-6.9 1.3-1.8 3.4-2.8 5.6-2.7 1.3 0 2.6 0.3 3.8 0.8 1.1 0.5 2 1.3 2.8 2.2v4.2h1.1v-4.6c-0.9-1.1-2-2.1-3.3-2.7-1.4-0.7-2.9-1-4.4-1-2.5-0.1-4.8 1-6.3 2.9-1.6 2.2-2.4 4.9-2.3 7.7v0.8c-0.1 2.7 0.7 5.5 2.3 7.7 1.5 1.9 3.9 3 6.4 2.9 2 0 3.9-0.6 5.5-1.9 1.5-1.2 2.4-3 2.3-5v-0.1h-0.9c0.1 1.7-0.7 3.4-2.1 4.4s-3 1.5-4.7 1.5c-2.3 0.3-4.4-0.7-5.8-2.5zm18.4 3.3h7.4v-1.1h-3.2v-20.1h-4.3v1.1h3.2v19.1h-3.2l0.1 1zm4.3-30.6h-1.1v2.7h1.1v-2.7zm27.1 30.6v-1.1h-2.5c-0.1-0.5-0.2-1.1-0.2-1.6s-0.1-1.1-0.1-1.6v-10.6c0.1-1.9-0.6-3.7-2.1-5-1.6-1.2-3.5-1.8-5.5-1.7-1.5 0-2.9 0.2-4.3 0.7-1.3 0.4-2.5 1-3.6 1.8v4h1.1v-3.4c0.9-0.7 1.9-1.2 3-1.6 1.2-0.4 2.5-0.6 3.8-0.6 1.7-0.1 3.4 0.4 4.8 1.5 1.2 1 1.8 2.6 1.7 4.1v3.1h-5.3c-2.5-0.1-4.9 0.5-7 1.8-2.6 1.7-3.4 5.2-1.7 7.9 0.2 0.3 0.5 0.7 0.8 1 1.3 1.1 2.9 1.7 4.6 1.6 1.8 0 3.6-0.4 5.1-1.2 1.4-0.7 2.5-1.8 3.4-3.1v0.3c0 0.5 0 1 0.1 1.5s0.2 1.2 0.3 2.1l3.6 0.1zm-16.2-2c-0.9-0.8-1.5-2.1-1.5-3.3 0-1.6 0.9-3.2 2.4-3.9 1.9-1.1 4.1-1.6 6.3-1.5h5.2v5c-0.7 1.6-1.9 2.9-3.3 3.7-1.6 0.9-3.4 1.4-5.2 1.4-1.5 0-2.9-0.5-3.9-1.4zm22.5-0.6h-1.7v2.6h1.7v-2.6z"/>
<path class="st0" d="m443.5 52.8c0.8-0.5 1.5-1.1 2.1-1.7 0.8-0.8 1.6-1.6 2.3-2.5 0.7-1 1.3-2 1.8-3.1 0.5-1.2 0.7-2.5 0.7-3.7 0-0.6-0.1-1.1-0.2-1.7-0.2-0.7-0.4-1.4-0.8-2-0.4-0.7-0.9-1.2-1.6-1.7-0.8-0.5-1.7-0.7-2.6-0.7-1.9 0-3.6 1.5-3.7 3.4 0 0.9 0.3 1.8 0.9 2.4s1.5 0.9 2.3 0.9c0.6 0 1.2-0.2 1.7-0.6 0.4-0.3 0.7-0.6 1-1 0.1 0.2 0.3 0.6 0.6 1.1 0.3 0.6 0.4 1.3 0.4 2 0 0.9-0.2 1.7-0.5 2.5-0.4 0.8-0.8 1.6-1.4 2.2-0.6 0.7-1.2 1.4-1.8 2-0.7 0.6-1.3 1.1-1.9 1.6l0.7 0.6zm-11.7 0c0.8-0.5 1.5-1.1 2.1-1.7 0.8-0.8 1.6-1.6 2.3-2.5 0.7-1 1.3-2 1.8-3.1 0.5-1.2 0.7-2.5 0.7-3.7 0-0.6-0.1-1.1-0.2-1.7-0.2-0.7-0.4-1.4-0.8-2-0.4-0.7-0.9-1.2-1.6-1.7-0.8-0.5-1.7-0.7-2.6-0.7-1.9 0-3.6 1.5-3.7 3.4 0 0.9 0.3 1.8 0.9 2.4s1.5 0.9 2.3 0.9c0.6 0 1.2-0.2 1.7-0.6 0.4-0.3 0.7-0.6 1-1 0.1 0.2 0.3 0.6 0.6 1.1 0.3 0.6 0.4 1.3 0.4 2 0 0.9-0.2 1.7-0.5 2.5-0.4 0.8-0.8 1.6-1.4 2.2-0.6 0.7-1.2 1.4-1.8 2-0.7 0.6-1.3 1.1-1.9 1.6l0.7 0.6z"/>
<path class="st1" d="m35 89.8h-2.5v14.4h9.1v-2h-6.6v-12.4zm15.1 14.4h2.3v-10.7h-2.4v7.7c-0.5 0.9-1.4 1.4-2.4 1.3-1.1 0-1.7-0.7-1.7-2v-6.9h-2.4v6.9c-0.1 1.1 0.2 2.1 0.9 3 0.7 0.7 1.7 1.1 2.6 1 1.1 0.1 2.3-0.4 3-1.2l0.1 0.9zm7.8-2.5c-0.5-0.8-0.7-1.7-0.6-2.6v-0.4c-0.1-0.9 0.2-1.8 0.6-2.6 0.4-0.6 1.1-0.9 1.8-0.8 0.6 0 1.1 0.2 1.5 0.6s0.6 0.9 0.6 1.5h2.3c0-1.1-0.5-2.2-1.3-2.9-0.9-0.8-2-1.2-3.1-1.1-1.4-0.1-2.7 0.5-3.6 1.5-0.9 1.1-1.4 2.5-1.3 3.9v0.2c-0.1 1.5 0.4 2.9 1.3 4 0.9 1 2.2 1.5 3.6 1.5 0.8 0 1.5-0.2 2.2-0.5 0.6-0.3 1.2-0.8 1.6-1.4s0.6-1.2 0.6-1.9h-2.3c0 0.5-0.3 1-0.6 1.3-0.4 0.4-1 0.5-1.5 0.5-0.7 0.1-1.4-0.3-1.8-0.8zm11-8.2h-2.4v10.7h2.4v-10.7zm-2.2-1.8c0.3 0.3 0.6 0.4 1 0.4s0.7-0.1 1-0.4c0.2-0.2 0.4-0.6 0.4-0.9s-0.1-0.7-0.4-0.9c-0.3-0.3-0.6-0.4-1-0.4s-0.7 0.1-1 0.4c-0.2 0.3-0.4 0.6-0.4 0.9s0.1 0.6 0.4 0.9zm14.1 12.6v-0.2c-0.3-0.7-0.4-1.5-0.4-2.3v-4.8c0-1-0.4-2-1.2-2.7-0.9-0.7-1.9-1-3-0.9-0.8 0-1.5 0.1-2.2 0.4-0.6 0.3-1.2 0.7-1.6 1.2s-0.6 1-0.6 1.6h2.4c0-0.4 0.2-0.8 0.5-1 0.4-0.3 0.9-0.4 1.3-0.4 0.5 0 1 0.1 1.4 0.5 0.4 0.3 0.6 0.8 0.6 1.3v0.7h-1.5c-1.3-0.1-2.6 0.2-3.6 0.9-0.8 0.6-1.3 1.6-1.3 2.6 0 0.9 0.4 1.7 1 2.3 1.6 1.3 4 1.2 5.5-0.3 0 0.3 0.1 0.7 0.3 1l2.4 0.1zm-6.4-2.2c-0.3-0.3-0.5-0.7-0.5-1.1 0-0.5 0.2-1 0.7-1.3 0.6-0.4 1.3-0.5 2-0.5h1.4v2c-0.2 0.4-0.5 0.7-0.9 0.9s-0.9 0.3-1.3 0.3c-0.6 0.1-1 0-1.4-0.3zm8.9-8.6v10.7h2.4v-7.6c0.4-0.8 1.3-1.3 2.2-1.3 0.5-0.1 1.1 0.1 1.4 0.5s0.5 1 0.4 1.5v6.9h2.4v-7.1c0-2.6-1.2-3.8-3.4-3.8-1.2 0-2.4 0.5-3.1 1.4l-0.1-1.2h-2.2zm11.3 5.4c-0.1 1.5 0.4 2.9 1.4 4 0.9 1 2.3 1.6 3.6 1.5 0.9 0 1.8-0.2 2.6-0.7s1.4-1.1 1.7-1.9c0.4-0.9 0.6-1.9 0.6-2.8v-0.6c0-1.4-0.5-2.7-1.5-3.7-0.9-0.9-2.2-1.5-3.5-1.4-0.9 0-1.8 0.2-2.6 0.7s-1.4 1.1-1.8 1.9c-0.4 0.9-0.6 1.9-0.6 2.8l0.1 0.2zm3.1-2.7c0.4-0.6 1.1-1 1.9-0.9 0.8 0 1.5 0.3 1.9 1 0.5 0.8 0.7 1.7 0.7 2.6 0.1 1-0.2 1.9-0.7 2.8-0.4 0.6-1.1 1-1.9 0.9-0.8 0-1.5-0.3-1.9-0.9-0.5-0.8-0.7-1.7-0.7-2.6-0.1-1.1 0.2-2.1 0.7-2.9zm26.5-6.4h-2.5v6h-6.5v-6h-2.5v14.4h2.5v-6.4h6.5v6.4h2.5v-14.4zm9.7 14.5h2.3v-10.8h-2.4v7.7c-0.5 0.9-1.4 1.4-2.4 1.3-1.1 0-1.7-0.7-1.7-2v-6.9h-2.4v6.9c-0.1 1.1 0.2 2.1 0.9 3 0.7 0.7 1.7 1.1 2.6 1 1.1 0.1 2.3-0.4 3-1.2l0.1 1zm7.7-2.6c-0.5-0.8-0.7-1.7-0.6-2.6v-0.4c-0.1-0.9 0.2-1.8 0.6-2.6 0.4-0.6 1.1-0.9 1.8-0.8 0.6 0 1.1 0.2 1.5 0.6s0.6 0.9 0.6 1.5h2.3c0-1.1-0.5-2.2-1.3-2.9-0.9-0.8-2-1.2-3.1-1.1-1.4-0.1-2.7 0.5-3.6 1.5-0.9 1.1-1.4 2.5-1.3 3.9v0.2c-0.1 1.5 0.4 2.9 1.3 4 0.9 1 2.2 1.5 3.6 1.5 0.8 0 1.5-0.2 2.2-0.5 0.6-0.3 1.2-0.8 1.6-1.4s0.6-1.2 0.6-1.9h-2.3c0 0.5-0.3 1-0.6 1.3-0.4 0.4-1 0.5-1.5 0.5-0.7 0.1-1.4-0.3-1.8-0.8zm15.1 2.6h2.8l-4.4-6.2 4-4.5h-2.9l-3 3.3-0.8 0.9v-8.8h-2.4v15.2h2.4v-3.5l1.1-1.1 3.2 4.7zm6.1 1.5c0.3-0.7 0.5-1.4 0.5-2.1v-1.7h-2.2v1.9c0 0.5-0.1 0.9-0.2 1.4-0.2 0.6-0.5 1.1-0.8 1.6l1.3 0.8c0.6-0.7 1-1.3 1.4-1.9zm-123.7 16.1c-0.2-0.7-0.3-1.4-0.3-2v-4.2c0-0.8-0.3-1.6-0.9-2.1-0.7-0.5-1.5-0.8-2.4-0.7-0.9 0-1.7 0.2-2.4 0.8-0.6 0.4-1 1.1-1 1.8h1c0-0.5 0.3-1 0.7-1.3 0.5-0.4 1.1-0.6 1.7-0.5 0.6 0 1.2 0.2 1.7 0.5 0.4 0.4 0.6 0.9 0.6 1.5v1h-1.8c-1.1-0.1-2.1 0.2-3 0.8-0.7 0.5-1.1 1.2-1.1 2.1 0 0.7 0.3 1.4 0.8 1.8 0.6 0.5 1.3 0.8 2.1 0.7 0.6 0 1.2-0.1 1.7-0.4 0.5-0.2 1-0.6 1.3-1 0 0.4 0.1 0.8 0.2 1.2h1.1zm-5.7-1.2c-0.4-0.3-0.6-0.8-0.6-1.2 0-0.6 0.3-1.2 0.8-1.4 0.7-0.4 1.5-0.6 2.3-0.5h1.8v2c-0.2 0.5-0.6 1-1.1 1.3s-1.1 0.5-1.8 0.5c-0.4-0.2-1-0.4-1.4-0.7zm8-3.2c-0.1 1.2 0.3 2.4 0.9 3.3 0.6 0.8 1.5 1.3 2.5 1.2 1.1 0.1 2.1-0.4 2.8-1.3v1.1c0 0.7-0.2 1.5-0.7 2s-1.2 0.8-1.9 0.7c-1 0-1.9-0.5-2.5-1.3l-0.6 0.6c0.3 0.5 0.8 0.9 1.3 1.1 0.6 0.3 1.2 0.4 1.8 0.4 1 0 1.9-0.3 2.6-1s1-1.7 1-2.7v-8.6h-0.9v1.3c-0.6-0.9-1.7-1.5-2.8-1.5-1 0-1.9 0.4-2.5 1.2-0.7 1-1 2.1-0.9 3.3-0.1 0-0.1 0.2-0.1 0.2zm1.7-2.9c0.4-0.6 1.2-1 1.9-1 0.6 0 1.1 0.1 1.6 0.4s0.8 0.8 1 1.3v4.2c-0.4 1-1.5 1.7-2.6 1.6-0.8 0-1.5-0.3-1.9-1-0.5-0.8-0.7-1.7-0.7-2.7-0.1-0.9 0.1-1.9 0.7-2.8zm7.9 2.9c-0.1 1.2 0.3 2.4 1.1 3.3 0.7 0.8 1.8 1.3 2.9 1.2 0.7 0 1.5-0.2 2.1-0.6s1.1-0.9 1.4-1.6 0.5-1.5 0.5-2.3v-0.2c0.1-1.2-0.3-2.4-1.1-3.3-0.7-0.8-1.8-1.3-2.9-1.2-1.5 0-2.9 0.8-3.5 2.2-0.3 0.7-0.5 1.5-0.5 2.3v0.2zm0.9-0.1c0-1 0.2-1.9 0.8-2.7 0.5-0.7 1.3-1.1 2.2-1 0.6 0 1.1 0.2 1.6 0.5s0.8 0.8 1.1 1.3c0.3 0.6 0.4 1.2 0.4 1.9v0.2c0 1-0.2 1.9-0.8 2.7-1 1.2-2.8 1.4-4 0.4-0.1-0.1-0.3-0.2-0.4-0.4-0.6-0.8-0.9-1.7-0.8-2.6l-0.1-0.3zm13.6-4.5c-0.2-0.1-0.4-0.1-0.7-0.1-1.1 0-2.1 0.6-2.5 1.6v-1.4h-1v8.9h1v-6.1c0.1-0.6 0.5-1.1 0.9-1.5s1-0.5 1.6-0.5c0.2 0 0.4 0 0.7 0.1v-1zm8.2 9c-0.2-0.7-0.3-1.4-0.3-2v-4.2c0-0.8-0.3-1.6-0.9-2.1-0.7-0.5-1.5-0.8-2.4-0.7-0.9 0-1.7 0.2-2.4 0.8-0.6 0.4-1 1.1-1 1.8h1c0-0.5 0.3-1 0.7-1.3 0.5-0.4 1.1-0.6 1.7-0.5 0.6 0 1.2 0.2 1.7 0.5 0.4 0.4 0.6 0.9 0.6 1.5v1h-1.8c-1.1-0.1-2.1 0.2-3 0.8-0.7 0.5-1.1 1.2-1.1 2.1 0 0.7 0.3 1.4 0.8 1.8 0.6 0.5 1.3 0.8 2.1 0.7 0.6 0 1.2-0.1 1.7-0.4 0.5-0.2 1-0.6 1.3-1 0 0.4 0.1 0.8 0.2 1.2h1.1zm-5.6-1.2c-0.4-0.3-0.6-0.8-0.6-1.2 0-0.6 0.3-1.2 0.8-1.4 0.7-0.4 1.5-0.6 2.3-0.5h1.8v2c-0.2 0.5-0.6 1-1.1 1.3s-1.1 0.5-1.8 0.5c-0.5-0.2-1-0.4-1.4-0.7zm12.8-7.7v8.9h1v-6.1c0.2-0.6 0.6-1.1 1-1.5 0.5-0.4 1-0.6 1.6-0.6 0.6-0.1 1.2 0.2 1.6 0.6 0.4 0.5 0.6 1.1 0.5 1.8v5.9h1v-6c0.1-0.9-0.2-1.7-0.7-2.4-0.6-0.6-1.3-0.9-2.1-0.8-0.6 0-1.2 0.1-1.7 0.4s-1 0.7-1.3 1.3v-1.5h-0.9zm16.3 8.9c-0.2-0.7-0.3-1.4-0.3-2v-4.2c0-0.8-0.3-1.6-0.9-2.1-0.7-0.5-1.5-0.8-2.4-0.7-0.9 0-1.7 0.2-2.4 0.8-0.6 0.4-1 1.1-1 1.8h1c0-0.5 0.3-1 0.7-1.3 0.5-0.4 1.1-0.6 1.7-0.5 0.6 0 1.2 0.2 1.7 0.5 0.4 0.4 0.6 0.9 0.6 1.5v1h-1.8c-1.1-0.1-2.1 0.2-3 0.8-0.7 0.5-1.1 1.2-1.1 2.1 0 0.7 0.3 1.4 0.8 1.8 0.6 0.5 1.3 0.8 2.1 0.7 0.6 0 1.2-0.1 1.7-0.4 0.5-0.2 1-0.6 1.3-1 0 0.4 0.1 0.8 0.2 1.2h1.1zm-5.6-1.2c-0.4-0.3-0.6-0.8-0.6-1.2 0-0.6 0.3-1.2 0.8-1.4 0.7-0.4 1.5-0.6 2.3-0.5h1.9v2c-0.2 0.5-0.6 1-1.1 1.3s-1.1 0.5-1.8 0.5c-0.6-0.2-1.1-0.4-1.5-0.7zm13.3-10.8h-1.2l4 5.9-4.1 6.1h1.2l3.5-5.2 3.5 5.2h1.2l-4.1-6.1 4-5.9h-1.2l-3.4 5.1-3.4-5.1zm14.5 7.1c1.1 0.1 2.2-0.3 3-0.9 0.7-0.7 1.1-1.6 1-2.6 0.1-1-0.3-2-1.1-2.6-0.8-0.7-1.9-1-3-1h-4.1v12h1v-4.9h3.2zm-3-6.3h3.2c0.8 0 1.6 0.2 2.2 0.8 0.5 0.5 0.8 1.2 0.8 2 0 0.7-0.2 1.5-0.8 2s-1.4 0.8-2.3 0.7h-3.1v-5.5zm15.4-0.8h-1v12h1v-12zm3.4 3.1v8.9h1v-6.1c0.2-0.6 0.6-1.1 1-1.5 0.5-0.4 1-0.6 1.6-0.6 0.6-0.1 1.2 0.2 1.6 0.6 0.4 0.5 0.6 1.1 0.5 1.8v5.9h1v-6c0.1-0.9-0.2-1.7-0.7-2.4-0.6-0.6-1.3-0.9-2.1-0.8-0.6 0-1.2 0.1-1.7 0.4s-1 0.7-1.3 1.3v-1.5h-0.9zm9.7 0h-1l3.4 8.9h0.8l3.3-8.9h-1l-2.7 7.6-2.8-7.6zm14.9 7.5l-0.6-0.5c-0.3 0.4-0.7 0.7-1.1 0.9s-0.9 0.3-1.4 0.3c-0.8 0-1.7-0.4-2.2-1-0.6-0.7-0.9-1.6-0.9-2.5v-0.2h6.4v-0.6c0.1-1.1-0.3-2.2-1-3-0.6-0.7-1.6-1.2-2.6-1.1-0.7 0-1.4 0.2-1.9 0.6-0.6 0.4-1.1 1-1.4 1.6-0.3 0.7-0.5 1.5-0.5 2.3v0.3c0 0.8 0.2 1.6 0.5 2.2s0.8 1.2 1.4 1.6 1.3 0.6 2.1 0.6c1.3 0.1 2.5-0.5 3.2-1.5zm-1.5-6c0.5 0.6 0.7 1.3 0.7 2.1v0.1h-5.4c0.1-0.8 0.4-1.6 0.9-2.2 0.5-0.5 1.2-0.8 1.9-0.8 0.8-0.1 1.5 0.2 1.9 0.8zm8.7 6.3c-0.5 0.3-1.1 0.5-1.7 0.5s-1.3-0.1-1.8-0.5c-0.4-0.3-0.7-0.8-0.7-1.3h-1c0 0.8 0.4 1.5 1 1.9 0.7 0.5 1.6 0.8 2.5 0.8 0.8 0 1.7-0.2 2.4-0.7 0.9-0.7 1.2-2 0.6-3-0.2-0.4-0.6-0.6-1-0.8-0.6-0.3-1.3-0.5-2-0.7-0.6-0.1-1.2-0.3-1.8-0.7-0.3-0.2-0.5-0.6-0.5-1 0-0.5 0.2-0.9 0.6-1.1 1-0.6 2.3-0.6 3.2 0.1 0.4 0.3 0.7 0.8 0.7 1.3h1c0-0.7-0.3-1.5-0.9-1.9-0.7-0.5-1.5-0.8-2.4-0.7-0.8 0-1.6 0.2-2.3 0.7-0.6 0.4-0.9 1.1-0.9 1.7 0 0.4 0.1 0.8 0.3 1.1 0.3 0.3 0.6 0.6 1 0.8 0.6 0.3 1.2 0.5 1.8 0.6s1.2 0.3 1.8 0.7c0.4 0.3 0.6 0.7 0.6 1.2 0.2 0.3-0.1 0.7-0.5 1zm4.8-10.1v2.3h-1.6v0.8h1.6v6c0 0.6 0.1 1.2 0.5 1.7 0.4 0.4 0.9 0.6 1.5 0.6 0.4 0 0.7 0 1.1-0.1v-0.8c-0.3 0-0.5 0.1-0.8 0.1s-0.7-0.1-0.9-0.4-0.3-0.7-0.3-1.1v-6h1.9v-0.8h-1.9v-2.3h-1.1zm6.3 2.3h-1v8.9h1v-8.9zm-1-2.1c0.1 0.1 0.3 0.2 0.5 0.2s0.4-0.1 0.5-0.2 0.2-0.3 0.2-0.5-0.1-0.3-0.2-0.5c-0.1-0.1-0.3-0.2-0.5-0.2s-0.4 0.1-0.5 0.2-0.2 0.3-0.2 0.5 0.1 0.3 0.2 0.5zm4 2.1v8.9h1v-6.1c0.2-0.6 0.5-1.2 1-1.6s1-0.5 1.6-0.5 1.2 0.2 1.6 0.6c0.4 0.5 0.6 1.1 0.5 1.7v6h1v-6c0-0.6 0.3-1.2 0.8-1.6s1.1-0.7 1.8-0.7c0.6-0.1 1.2 0.2 1.7 0.6 0.4 0.5 0.6 1.1 0.5 1.8v5.9h1v-6c0-2.1-1-3.1-2.9-3.1-0.6 0-1.2 0.1-1.8 0.4-0.5 0.3-1 0.7-1.3 1.3-0.4-1.1-1.5-1.9-2.7-1.7-0.6 0-1.1 0.1-1.7 0.4-0.5 0.3-0.9 0.7-1.2 1.2v-1.5h-0.9zm22 7.5l-0.6-0.5c-0.3 0.4-0.7 0.7-1.1 0.9s-0.9 0.3-1.4 0.3c-0.8 0-1.7-0.4-2.2-1-0.6-0.7-0.9-1.6-0.9-2.5v-0.2h6.4v-0.6c0.1-1.1-0.3-2.2-1-3-0.6-0.7-1.6-1.2-2.6-1.1-0.7 0-1.4 0.2-1.9 0.6-0.6 0.4-1.1 1-1.4 1.6-0.3 0.7-0.5 1.5-0.5 2.3v0.4c0 0.8 0.2 1.6 0.5 2.2s0.8 1.2 1.4 1.6 1.3 0.6 2.1 0.6c1.3 0 2.5-0.6 3.2-1.6zm-1.5-6.1c0.5 0.6 0.7 1.3 0.7 2.1v0.1h-5.4c0.1-0.8 0.4-1.6 0.9-2.2 0.5-0.5 1.2-0.8 1.9-0.8 0.8 0 1.4 0.3 1.9 0.8zm4-1.4v8.9h1v-6.1c0.2-0.6 0.6-1.1 1-1.5 0.5-0.4 1-0.6 1.6-0.6 0.6-0.1 1.2 0.2 1.6 0.6 0.4 0.5 0.6 1.1 0.5 1.8v5.9h1v-6c0.1-0.9-0.2-1.7-0.7-2.4-0.6-0.6-1.3-0.9-2.1-0.8-0.6 0-1.2 0.1-1.7 0.4s-1 0.7-1.3 1.3v-1.5h-0.9zm10.2-2.3v2.3h-1.6v0.8h1.6v6c0 0.6 0.1 1.2 0.5 1.7 0.4 0.4 0.9 0.6 1.5 0.6 0.4 0 0.7 0 1.1-0.1v-0.8c-0.3 0-0.5 0.1-0.8 0.1s-0.7-0.1-0.9-0.4-0.3-0.7-0.3-1.1v-6h1.9v-0.8h-1.9v-2.3h-1.1zm4.5 6.8c-0.1 1.2 0.3 2.4 1.1 3.3 0.7 0.8 1.8 1.3 2.9 1.2 0.7 0 1.5-0.2 2.1-0.6s1.1-0.9 1.4-1.6 0.5-1.5 0.5-2.3v-0.2c0.1-1.2-0.3-2.4-1.1-3.3-0.7-0.8-1.8-1.3-2.9-1.2-1.5 0-2.9 0.8-3.5 2.2-0.3 0.7-0.5 1.5-0.5 2.3v0.2zm1-0.1c0-1 0.2-1.9 0.8-2.7 0.5-0.7 1.3-1.1 2.2-1 0.6 0 1.1 0.2 1.6 0.5s0.8 0.8 1.1 1.3c0.3 0.6 0.4 1.2 0.4 1.9v0.2c0 1-0.2 1.9-0.8 2.7-1 1.2-2.8 1.4-4 0.4-0.1-0.1-0.3-0.2-0.4-0.4-0.6-0.8-0.9-1.7-0.8-2.6l-0.1-0.3zm14.1 3.4c-0.5 0.3-1.1 0.5-1.7 0.5s-1.3-0.1-1.8-0.5c-0.4-0.3-0.7-0.8-0.7-1.3h-1c0 0.8 0.4 1.5 1 1.9 0.7 0.5 1.6 0.8 2.5 0.8 0.8 0 1.7-0.2 2.4-0.7 0.9-0.7 1.2-2 0.6-3-0.2-0.4-0.6-0.6-1-0.8-0.6-0.3-1.3-0.5-2-0.7-0.6-0.1-1.2-0.3-1.8-0.7-0.3-0.2-0.5-0.6-0.5-1 0-0.5 0.2-0.9 0.6-1.1 1-0.6 2.3-0.6 3.2 0.1 0.4 0.3 0.7 0.8 0.7 1.3h1c0-0.7-0.3-1.5-0.9-1.9-0.7-0.5-1.5-0.8-2.4-0.7-0.8 0-1.6 0.2-2.3 0.7-0.6 0.4-0.9 1.1-0.9 1.7 0 0.4 0.1 0.8 0.3 1.1 0.3 0.3 0.6 0.6 1 0.8 0.6 0.3 1.2 0.5 1.8 0.6s1.2 0.3 1.8 0.7c0.4 0.3 0.6 0.7 0.6 1.2 0.1 0.3-0.1 0.7-0.5 1zm4.3 1c0.1 0.1 0.3 0.2 0.5 0.2s0.4-0.1 0.5-0.2 0.2-0.3 0.2-0.5-0.1-0.4-0.2-0.5-0.3-0.2-0.5-0.2-0.4 0.1-0.5 0.2-0.2 0.3-0.2 0.5 0 0.3 0.2 0.5z"/>
</svg>
